<svg width="17" height="17" viewBox="0 0 17 17" fill="none" xmlns="http://www.w3.org/2000/svg">
<path fill-rule="evenodd" clip-rule="evenodd" d="M4.61174 4.35635C4.43188 4.54496 4.43473 4.84964 4.62031 5.03245C6.07996 6.47531 6.9665 7.35174 7.65388 8.03142C6.95466 8.73772 6.1562 9.54431 4.6448 11.0724C4.46199 11.2551 4.46489 11.5549 4.6535 11.7347L5.30023 12.3815C5.48884 12.5613 5.79353 12.5585 5.97633 12.3729C7.41957 10.9129 8.29608 10.0263 8.97583 9.33881C9.20222 9.56274 9.43898 9.79695 9.70671 10.0618C10.2733 10.6223 10.9785 11.3199 12.0177 12.3477C12.2004 12.5305 12.5002 12.5276 12.68 12.339L13.3267 11.6923C13.5066 11.5065 13.5038 11.2019 13.3182 11.0191C11.8581 9.57575 10.9711 8.69849 10.2827 8.01739C10.5066 7.791 10.7408 7.55424 11.0057 7.28651C11.5661 6.71994 12.2638 6.01468 13.2916 4.97556C13.4744 4.79284 13.4715 4.49307 13.2829 4.3132L12.6361 3.66647C12.4504 3.4866 12.1457 3.48946 11.9629 3.67503C10.52 5.13475 9.64283 6.0217 8.9618 6.70999C8.2555 6.01078 7.4489 5.21231 5.92084 3.70091C5.73812 3.5181 5.43834 3.521 5.25847 3.70962L4.61174 4.35635Z" fill="white"/>
</svg>
